<mxfile host="app.diagrams.net" modified="2024-01-29T03:25:01.394Z" agent="Mozilla/5.0 (Windows NT 10.0; Win64; x64) AppleWebKit/537.36 (KHTML, like Gecko) Chrome/120.0.0.0 Safari/537.36" version="23.0.2" etag="5BvmUAjnQt9qcBTScXPa" type="github">
  <diagram name="Page-1" id="r48RwjJko1MzEiJN_mms">
    <mxGraphModel>
      <root>
        <mxCell id="0" />
        <mxCell id="1" parent="0" />
      </root>
    </mxGraphModel>
  </diagram>
</mxfile>
